# xmcd
#
# Track frame offsets:
# 150
# 13400
# 25553
# 41992
# 60682
# 76009
# 90793
# 107761
# 130109
# 145268
# 159612
# 177391
#
# Disc length: 2689 seconds
#
# Revision: 0
# Processed by: cddbd v1.5.2PL0 Copyright (c) Steve Scherf et al.
# Submitted via: Audion 3.0.2 (http://www.panic.com/audion/)
#
DISCID=930a7f0c
DTITLE=Rubí Esmeralda y Ramiro Guzmán "El Uriangato" - Rubí Esmeralda y Ramiro Guzmán "El Uriangato"
DYEAR=1900
DGENRE=
TTITLE0=Échale un quinto al piano
TTITLE1=El puente roto
TTITLE2=La cigarra
TTITLE3=Acá entre nos
TTITLE4=Mi ranchito
TTITLE5=El pastor
TTITLE6=Adolorido
TTITLE7=Pobre corazón
TTITLE8=Hay unos ojos
TTITLE9=Ayúdame Dios mío
TTITLE10=Veinte años
TTITLE11=Vámonos
EXTD=
EXTT0=
EXTT1=
EXTT2=
EXTT3=
EXTT4=
EXTT5=
EXTT6=
EXTT7=
EXTT8=
EXTT9=
EXTT10=
EXTT11=
PLAYORDER=
